<?xml version="1.0" encoding="iso-8859-1"?>
<!-- Generator: Adobe Illustrator 19.1.0, SVG Export Plug-In . SVG Version: 6.00 Build 0)  -->
<svg xmlns="http://www.w3.org/2000/svg" xmlns:xlink="http://www.w3.org/1999/xlink" version="1.1" id="Capa_1" x="0px" y="0px" viewBox="0 0 54.027 54.027" style="enable-background:new 0 0 54.027 54.027;" xml:space="preserve" width="512px" height="512px">
<g id="bulb_1_">
	<g>
		<path d="M31.263,8.048c2.209,0,4-1.802,4-4.024c0-2.222-1.791-4.024-4-4.024c-2.209,0-4,1.802-4,4.024    C27.263,6.246,29.054,8.048,31.263,8.048z M34.013,33.027v-13h2v-4h-18v4h2v13l-13,21h40L34.013,33.027z M24.013,34.027v-14h6v14    l4,6h-14L24.013,34.027z M18.013,44.027h18l4,6h-26L18.013,44.027z M18.763,11.36c1.381,0,2.5-1.126,2.5-2.515    s-1.119-2.515-2.5-2.515s-2.5,1.126-2.5,2.515S17.382,11.36,18.763,11.36z" fill="#c0c0c0"/>
	</g>
</g>
<g>
</g>
<g>
</g>
<g>
</g>
<g>
</g>
<g>
</g>
<g>
</g>
<g>
</g>
<g>
</g>
<g>
</g>
<g>
</g>
<g>
</g>
<g>
</g>
<g>
</g>
<g>
</g>
<g>
</g>
</svg>
